<mxfile host="app.diagrams.net" agent="Mozilla/5.0 (Macintosh; Intel Mac OS X 10_15_7) AppleWebKit/605.1.15 (KHTML, like Gecko) Version/15.6.1 Safari/605.1.15" version="24.7.10">
  <diagram name="Страница — 1" id="_BNZNxSeFEgQ4xO14Fq_">
    <mxGraphModel dx="3905" dy="2318" grid="1" gridSize="10" guides="1" tooltips="1" connect="1" arrows="1" fold="1" page="1" pageScale="1" pageWidth="827" pageHeight="1169" math="0" shadow="0">
      <root>
        <mxCell id="0" />
        <mxCell id="1" parent="0" />
        <mxCell id="PQbzM9g08RcIzvuac4ex-1" value="" style="ellipse;whiteSpace=wrap;html=1;" vertex="1" parent="1">
          <mxGeometry x="294" y="340" width="120" height="80" as="geometry" />
        </mxCell>
        <mxCell id="PQbzM9g08RcIzvuac4ex-4" value="Начало процесса" style="text;html=1;align=center;verticalAlign=middle;whiteSpace=wrap;rounded=0;" vertex="1" parent="1">
          <mxGeometry x="324" y="365" width="60" height="30" as="geometry" />
        </mxCell>
        <mxCell id="PQbzM9g08RcIzvuac4ex-5" value="" style="rounded=1;whiteSpace=wrap;html=1;" vertex="1" parent="1">
          <mxGeometry x="294" y="470" width="120" height="60" as="geometry" />
        </mxCell>
        <mxCell id="PQbzM9g08RcIzvuac4ex-6" value="" style="endArrow=classic;html=1;rounded=0;entryX=0.5;entryY=0;entryDx=0;entryDy=0;exitX=0.5;exitY=1;exitDx=0;exitDy=0;" edge="1" parent="1" source="PQbzM9g08RcIzvuac4ex-1" target="PQbzM9g08RcIzvuac4ex-5">
          <mxGeometry width="50" height="50" relative="1" as="geometry">
            <mxPoint x="350" y="420" as="sourcePoint" />
            <mxPoint x="400" y="370" as="targetPoint" />
          </mxGeometry>
        </mxCell>
        <mxCell id="PQbzM9g08RcIzvuac4ex-7" value="Просмотр тура" style="text;html=1;align=center;verticalAlign=middle;whiteSpace=wrap;rounded=0;" vertex="1" parent="1">
          <mxGeometry x="307" y="485" width="94" height="30" as="geometry" />
        </mxCell>
        <mxCell id="PQbzM9g08RcIzvuac4ex-8" value="" style="endArrow=classic;html=1;rounded=0;" edge="1" parent="1">
          <mxGeometry width="50" height="50" relative="1" as="geometry">
            <mxPoint x="353.33" y="530" as="sourcePoint" />
            <mxPoint x="353.33" y="640" as="targetPoint" />
          </mxGeometry>
        </mxCell>
        <mxCell id="PQbzM9g08RcIzvuac4ex-9" value="Через туроператора?" style="rhombus;whiteSpace=wrap;html=1;" vertex="1" parent="1">
          <mxGeometry x="301" y="640" width="106" height="110" as="geometry" />
        </mxCell>
        <mxCell id="PQbzM9g08RcIzvuac4ex-10" value="" style="endArrow=classic;html=1;rounded=0;" edge="1" parent="1">
          <mxGeometry width="50" height="50" relative="1" as="geometry">
            <mxPoint x="620" y="690" as="sourcePoint" />
            <mxPoint x="644.33" y="765" as="targetPoint" />
            <Array as="points">
              <mxPoint x="644" y="690" />
            </Array>
          </mxGeometry>
        </mxCell>
        <mxCell id="PQbzM9g08RcIzvuac4ex-11" value="Нет" style="text;html=1;align=center;verticalAlign=middle;whiteSpace=wrap;rounded=0;" vertex="1" parent="1">
          <mxGeometry x="553" y="680" width="60" height="30" as="geometry" />
        </mxCell>
        <mxCell id="PQbzM9g08RcIzvuac4ex-12" value="" style="endArrow=none;html=1;rounded=0;exitX=1;exitY=0.5;exitDx=0;exitDy=0;entryX=0;entryY=0.5;entryDx=0;entryDy=0;" edge="1" parent="1" target="PQbzM9g08RcIzvuac4ex-11">
          <mxGeometry width="50" height="50" relative="1" as="geometry">
            <mxPoint x="406.9999999999999" y="695" as="sourcePoint" />
            <mxPoint x="523" y="665" as="targetPoint" />
          </mxGeometry>
        </mxCell>
        <mxCell id="PQbzM9g08RcIzvuac4ex-13" value="" style="endArrow=none;html=1;rounded=0;exitX=1;exitY=0.5;exitDx=0;exitDy=0;entryX=0;entryY=0.5;entryDx=0;entryDy=0;" edge="1" parent="1">
          <mxGeometry width="50" height="50" relative="1" as="geometry">
            <mxPoint x="154.9999999999999" y="694.63" as="sourcePoint" />
            <mxPoint x="301" y="694.63" as="targetPoint" />
          </mxGeometry>
        </mxCell>
        <mxCell id="PQbzM9g08RcIzvuac4ex-14" value="Да" style="text;html=1;align=center;verticalAlign=middle;whiteSpace=wrap;rounded=0;" vertex="1" parent="1">
          <mxGeometry x="90" y="680" width="60" height="30" as="geometry" />
        </mxCell>
        <mxCell id="PQbzM9g08RcIzvuac4ex-15" value="" style="endArrow=classic;html=1;rounded=0;" edge="1" parent="1">
          <mxGeometry width="50" height="50" relative="1" as="geometry">
            <mxPoint x="90" y="690" as="sourcePoint" />
            <mxPoint x="90" y="850" as="targetPoint" />
          </mxGeometry>
        </mxCell>
        <mxCell id="PQbzM9g08RcIzvuac4ex-21" style="edgeStyle=orthogonalEdgeStyle;rounded=0;orthogonalLoop=1;jettySize=auto;html=1;exitX=0.5;exitY=1;exitDx=0;exitDy=0;entryX=0.5;entryY=0;entryDx=0;entryDy=0;" edge="1" parent="1" source="PQbzM9g08RcIzvuac4ex-16">
          <mxGeometry relative="1" as="geometry">
            <mxPoint x="90" y="1000" as="targetPoint" />
          </mxGeometry>
        </mxCell>
        <mxCell id="PQbzM9g08RcIzvuac4ex-16" value="звонок туроператору" style="rounded=1;whiteSpace=wrap;html=1;" vertex="1" parent="1">
          <mxGeometry x="30" y="850" width="120" height="60" as="geometry" />
        </mxCell>
        <mxCell id="PQbzM9g08RcIzvuac4ex-96" style="edgeStyle=orthogonalEdgeStyle;rounded=0;orthogonalLoop=1;jettySize=auto;html=1;exitX=0.5;exitY=1;exitDx=0;exitDy=0;entryX=0.5;entryY=0;entryDx=0;entryDy=0;" edge="1" parent="1" source="PQbzM9g08RcIzvuac4ex-17" target="PQbzM9g08RcIzvuac4ex-32">
          <mxGeometry relative="1" as="geometry" />
        </mxCell>
        <mxCell id="PQbzM9g08RcIzvuac4ex-17" value="вход в турсайт" style="rounded=1;whiteSpace=wrap;html=1;" vertex="1" parent="1">
          <mxGeometry x="585" y="770" width="120" height="60" as="geometry" />
        </mxCell>
        <mxCell id="PQbzM9g08RcIzvuac4ex-90" style="edgeStyle=orthogonalEdgeStyle;rounded=0;orthogonalLoop=1;jettySize=auto;html=1;exitX=1;exitY=0.5;exitDx=0;exitDy=0;exitPerimeter=0;entryX=0.5;entryY=0;entryDx=0;entryDy=0;" edge="1" parent="1" source="PQbzM9g08RcIzvuac4ex-22" target="PQbzM9g08RcIzvuac4ex-49">
          <mxGeometry relative="1" as="geometry">
            <Array as="points">
              <mxPoint x="160" y="1040" />
              <mxPoint x="160" y="1090" />
              <mxPoint x="120" y="1090" />
            </Array>
          </mxGeometry>
        </mxCell>
        <mxCell id="PQbzM9g08RcIzvuac4ex-22" value="временная задержка" style="shape=or;whiteSpace=wrap;html=1;" vertex="1" parent="1">
          <mxGeometry x="60" y="1000" width="60" height="80" as="geometry" />
        </mxCell>
        <mxCell id="PQbzM9g08RcIzvuac4ex-66" style="edgeStyle=orthogonalEdgeStyle;rounded=0;orthogonalLoop=1;jettySize=auto;html=1;exitX=0.5;exitY=1;exitDx=0;exitDy=0;entryX=0.5;entryY=0;entryDx=0;entryDy=0;" edge="1" parent="1" source="PQbzM9g08RcIzvuac4ex-26" target="PQbzM9g08RcIzvuac4ex-61">
          <mxGeometry relative="1" as="geometry" />
        </mxCell>
        <mxCell id="PQbzM9g08RcIzvuac4ex-26" value="покупка билета" style="rounded=1;whiteSpace=wrap;html=1;" vertex="1" parent="1">
          <mxGeometry x="414" y="1410" width="120" height="60" as="geometry" />
        </mxCell>
        <mxCell id="PQbzM9g08RcIzvuac4ex-27" value="Окончание" style="ellipse;whiteSpace=wrap;html=1;" vertex="1" parent="1">
          <mxGeometry x="460" y="2120" width="120" height="80" as="geometry" />
        </mxCell>
        <mxCell id="PQbzM9g08RcIzvuac4ex-32" value="выбор тура" style="rounded=1;whiteSpace=wrap;html=1;" vertex="1" parent="1">
          <mxGeometry x="585" y="850" width="120" height="60" as="geometry" />
        </mxCell>
        <mxCell id="PQbzM9g08RcIzvuac4ex-34" value="заполнение документов" style="rounded=1;whiteSpace=wrap;html=1;" vertex="1" parent="1">
          <mxGeometry x="585" y="1090" width="120" height="60" as="geometry" />
        </mxCell>
        <mxCell id="PQbzM9g08RcIzvuac4ex-98" style="edgeStyle=orthogonalEdgeStyle;rounded=0;orthogonalLoop=1;jettySize=auto;html=1;exitX=0.5;exitY=1;exitDx=0;exitDy=0;entryX=0.5;entryY=0;entryDx=0;entryDy=0;" edge="1" parent="1" source="PQbzM9g08RcIzvuac4ex-37" target="PQbzM9g08RcIzvuac4ex-41">
          <mxGeometry relative="1" as="geometry" />
        </mxCell>
        <mxCell id="PQbzM9g08RcIzvuac4ex-37" value="&lt;div style=&quot;&quot;&gt;выбор цены&lt;/div&gt;" style="rounded=1;whiteSpace=wrap;html=1;align=center;" vertex="1" parent="1">
          <mxGeometry x="587" y="930" width="120" height="60" as="geometry" />
        </mxCell>
        <mxCell id="PQbzM9g08RcIzvuac4ex-99" style="edgeStyle=orthogonalEdgeStyle;rounded=0;orthogonalLoop=1;jettySize=auto;html=1;exitX=0.5;exitY=1;exitDx=0;exitDy=0;entryX=0.5;entryY=0;entryDx=0;entryDy=0;" edge="1" parent="1" source="PQbzM9g08RcIzvuac4ex-41" target="PQbzM9g08RcIzvuac4ex-34">
          <mxGeometry relative="1" as="geometry" />
        </mxCell>
        <mxCell id="PQbzM9g08RcIzvuac4ex-41" value="&lt;div style=&quot;&quot;&gt;выбор места&lt;/div&gt;" style="rounded=1;whiteSpace=wrap;html=1;align=center;" vertex="1" parent="1">
          <mxGeometry x="585" y="1010" width="120" height="60" as="geometry" />
        </mxCell>
        <mxCell id="PQbzM9g08RcIzvuac4ex-89" style="edgeStyle=orthogonalEdgeStyle;rounded=0;orthogonalLoop=1;jettySize=auto;html=1;exitX=0.5;exitY=1;exitDx=0;exitDy=0;entryX=0.5;entryY=0;entryDx=0;entryDy=0;" edge="1" parent="1" source="PQbzM9g08RcIzvuac4ex-49" target="PQbzM9g08RcIzvuac4ex-51">
          <mxGeometry relative="1" as="geometry" />
        </mxCell>
        <mxCell id="PQbzM9g08RcIzvuac4ex-49" value="выбор страны" style="rounded=1;whiteSpace=wrap;html=1;" vertex="1" parent="1">
          <mxGeometry x="60" y="1109" width="120" height="60" as="geometry" />
        </mxCell>
        <mxCell id="PQbzM9g08RcIzvuac4ex-88" style="edgeStyle=orthogonalEdgeStyle;rounded=0;orthogonalLoop=1;jettySize=auto;html=1;exitX=0.5;exitY=1;exitDx=0;exitDy=0;entryX=0.5;entryY=0;entryDx=0;entryDy=0;" edge="1" parent="1" source="PQbzM9g08RcIzvuac4ex-51" target="PQbzM9g08RcIzvuac4ex-53">
          <mxGeometry relative="1" as="geometry" />
        </mxCell>
        <mxCell id="PQbzM9g08RcIzvuac4ex-51" value="выбор тура" style="rounded=1;whiteSpace=wrap;html=1;" vertex="1" parent="1">
          <mxGeometry x="60" y="1190" width="120" height="60" as="geometry" />
        </mxCell>
        <mxCell id="PQbzM9g08RcIzvuac4ex-87" style="edgeStyle=orthogonalEdgeStyle;rounded=0;orthogonalLoop=1;jettySize=auto;html=1;exitX=0.5;exitY=1;exitDx=0;exitDy=0;entryX=0.5;entryY=0;entryDx=0;entryDy=0;" edge="1" parent="1" source="PQbzM9g08RcIzvuac4ex-53" target="PQbzM9g08RcIzvuac4ex-55">
          <mxGeometry relative="1" as="geometry" />
        </mxCell>
        <mxCell id="PQbzM9g08RcIzvuac4ex-53" value="&lt;div style=&quot;&quot;&gt;выбор цены&lt;/div&gt;" style="rounded=1;whiteSpace=wrap;html=1;align=center;" vertex="1" parent="1">
          <mxGeometry x="60" y="1270" width="120" height="60" as="geometry" />
        </mxCell>
        <mxCell id="PQbzM9g08RcIzvuac4ex-102" style="edgeStyle=orthogonalEdgeStyle;rounded=0;orthogonalLoop=1;jettySize=auto;html=1;exitX=0.5;exitY=1;exitDx=0;exitDy=0;entryX=0;entryY=0.5;entryDx=0;entryDy=0;" edge="1" parent="1" source="PQbzM9g08RcIzvuac4ex-55" target="PQbzM9g08RcIzvuac4ex-76">
          <mxGeometry relative="1" as="geometry" />
        </mxCell>
        <mxCell id="PQbzM9g08RcIzvuac4ex-55" value="заполнение документов" style="rounded=1;whiteSpace=wrap;html=1;" vertex="1" parent="1">
          <mxGeometry x="60" y="1350" width="120" height="60" as="geometry" />
        </mxCell>
        <mxCell id="PQbzM9g08RcIzvuac4ex-61" value="Олатить сразу?" style="rhombus;whiteSpace=wrap;html=1;" vertex="1" parent="1">
          <mxGeometry x="467" y="1550" width="106" height="110" as="geometry" />
        </mxCell>
        <mxCell id="PQbzM9g08RcIzvuac4ex-69" value="" style="endArrow=none;html=1;rounded=0;exitX=1;exitY=0.5;exitDx=0;exitDy=0;" edge="1" parent="1" source="PQbzM9g08RcIzvuac4ex-61">
          <mxGeometry width="50" height="50" relative="1" as="geometry">
            <mxPoint x="660" y="1620" as="sourcePoint" />
            <mxPoint x="750" y="1605" as="targetPoint" />
          </mxGeometry>
        </mxCell>
        <mxCell id="PQbzM9g08RcIzvuac4ex-70" value="Да" style="text;html=1;align=center;verticalAlign=middle;whiteSpace=wrap;rounded=0;" vertex="1" parent="1">
          <mxGeometry x="770" y="1590" width="60" height="30" as="geometry" />
        </mxCell>
        <mxCell id="PQbzM9g08RcIzvuac4ex-71" value="" style="endArrow=none;html=1;rounded=0;exitX=1;exitY=0.5;exitDx=0;exitDy=0;" edge="1" parent="1">
          <mxGeometry width="50" height="50" relative="1" as="geometry">
            <mxPoint x="290" y="1604.29" as="sourcePoint" />
            <mxPoint x="467" y="1604.29" as="targetPoint" />
          </mxGeometry>
        </mxCell>
        <mxCell id="PQbzM9g08RcIzvuac4ex-72" value="Нет" style="text;html=1;align=center;verticalAlign=middle;whiteSpace=wrap;rounded=0;" vertex="1" parent="1">
          <mxGeometry x="210" y="1590" width="60" height="30" as="geometry" />
        </mxCell>
        <mxCell id="PQbzM9g08RcIzvuac4ex-73" value="" style="endArrow=classic;html=1;rounded=0;" edge="1" parent="1">
          <mxGeometry width="50" height="50" relative="1" as="geometry">
            <mxPoint x="799.29" y="1630" as="sourcePoint" />
            <mxPoint x="799.29" y="1790" as="targetPoint" />
          </mxGeometry>
        </mxCell>
        <mxCell id="PQbzM9g08RcIzvuac4ex-82" style="edgeStyle=orthogonalEdgeStyle;rounded=0;orthogonalLoop=1;jettySize=auto;html=1;exitX=0.5;exitY=1;exitDx=0;exitDy=0;entryX=1;entryY=0.5;entryDx=0;entryDy=0;" edge="1" parent="1" source="PQbzM9g08RcIzvuac4ex-74" target="PQbzM9g08RcIzvuac4ex-81">
          <mxGeometry relative="1" as="geometry" />
        </mxCell>
        <mxCell id="PQbzM9g08RcIzvuac4ex-74" value="Оплатить после получении" style="rounded=1;whiteSpace=wrap;html=1;" vertex="1" parent="1">
          <mxGeometry x="730" y="1810" width="130" height="60" as="geometry" />
        </mxCell>
        <mxCell id="PQbzM9g08RcIzvuac4ex-75" value="" style="endArrow=classic;html=1;rounded=0;" edge="1" parent="1">
          <mxGeometry width="50" height="50" relative="1" as="geometry">
            <mxPoint x="239.28999999999996" y="1630" as="sourcePoint" />
            <mxPoint x="239.28999999999996" y="1790" as="targetPoint" />
          </mxGeometry>
        </mxCell>
        <mxCell id="PQbzM9g08RcIzvuac4ex-83" style="edgeStyle=orthogonalEdgeStyle;rounded=0;orthogonalLoop=1;jettySize=auto;html=1;exitX=0.5;exitY=1;exitDx=0;exitDy=0;entryX=0;entryY=0.5;entryDx=0;entryDy=0;" edge="1" parent="1" source="PQbzM9g08RcIzvuac4ex-76" target="PQbzM9g08RcIzvuac4ex-81">
          <mxGeometry relative="1" as="geometry" />
        </mxCell>
        <mxCell id="PQbzM9g08RcIzvuac4ex-76" value="Оплатить после получении" style="rounded=1;whiteSpace=wrap;html=1;" vertex="1" parent="1">
          <mxGeometry x="170" y="1810" width="130" height="60" as="geometry" />
        </mxCell>
        <mxCell id="PQbzM9g08RcIzvuac4ex-84" style="edgeStyle=orthogonalEdgeStyle;rounded=0;orthogonalLoop=1;jettySize=auto;html=1;exitX=0.5;exitY=1;exitDx=0;exitDy=0;entryX=0.5;entryY=0;entryDx=0;entryDy=0;" edge="1" parent="1" source="PQbzM9g08RcIzvuac4ex-81" target="PQbzM9g08RcIzvuac4ex-27">
          <mxGeometry relative="1" as="geometry" />
        </mxCell>
        <mxCell id="PQbzM9g08RcIzvuac4ex-81" value="Получение билета" style="rounded=1;whiteSpace=wrap;html=1;" vertex="1" parent="1">
          <mxGeometry x="455" y="1970" width="130" height="60" as="geometry" />
        </mxCell>
        <mxCell id="PQbzM9g08RcIzvuac4ex-92" style="edgeStyle=orthogonalEdgeStyle;rounded=0;orthogonalLoop=1;jettySize=auto;html=1;entryX=0.468;entryY=-0.033;entryDx=0;entryDy=0;entryPerimeter=0;exitX=0.565;exitY=1.019;exitDx=0;exitDy=0;exitPerimeter=0;" edge="1" parent="1" source="PQbzM9g08RcIzvuac4ex-34" target="PQbzM9g08RcIzvuac4ex-26">
          <mxGeometry relative="1" as="geometry">
            <mxPoint x="660" y="1160" as="sourcePoint" />
            <Array as="points">
              <mxPoint x="650" y="1151" />
              <mxPoint x="650" y="1320" />
              <mxPoint x="470" y="1320" />
            </Array>
          </mxGeometry>
        </mxCell>
        <mxCell id="PQbzM9g08RcIzvuac4ex-97" style="edgeStyle=orthogonalEdgeStyle;rounded=0;orthogonalLoop=1;jettySize=auto;html=1;exitX=0.5;exitY=1;exitDx=0;exitDy=0;entryX=0.469;entryY=-0.008;entryDx=0;entryDy=0;entryPerimeter=0;" edge="1" parent="1" source="PQbzM9g08RcIzvuac4ex-32" target="PQbzM9g08RcIzvuac4ex-37">
          <mxGeometry relative="1" as="geometry" />
        </mxCell>
      </root>
    </mxGraphModel>
  </diagram>
</mxfile>
